<?xml version="1.0" encoding="utf-8"?>
<!-- Generator: Adobe Illustrator 21.1.0, SVG Export Plug-In . SVG Version: 6.00 Build 0)  -->
<svg version="1.1" id="Layer_2" xmlns="http://www.w3.org/2000/svg" xmlns:xlink="http://www.w3.org/1999/xlink" x="0px" y="0px"
	 viewBox="0 0 269 56" style="enable-background:new 0 0 269 56;" xml:space="preserve">
<style type="text/css">
	.st0{fill:#53CAEC;}
	.st1{fill:#583FF8;}
</style>
<g>
	<polygon class="st0" points="0.4,12.1 12.6,12.1 26.8,43.7 42.1,12.1 53.6,12.1 68.1,43.7 83.5,12.1 95.3,12.1 74.4,54.8 
		61.8,54.8 47.9,25.7 32.9,55 21.1,55 	"/>
	<path class="st0" d="M262.4,16.1h-23.2c-4,0-7.3-3.3-7.3-7.3V7.9c0-4,3.3-7.3,7.3-7.3h23.2c4,0,7.3,3.3,7.3,7.3v0.8
		C269.7,12.8,266.4,16.1,262.4,16.1z"/>
	<path class="st1" d="M181,23.5h8.8v5c0,0,2.8-5,14.2-4.8v6.7c0,0-13.9-1.4-13.9,8.8v15.7H181V23.5z"/>
	<path class="st1" d="M239.4,32.4c-0.7-1.1-1.6-2.1-2.4-2.8c-1.4-1.3-5.1-4.4-11-5.6c-9.6-1.9-17.2,2.7-18.4,3.4
		c-1.1,0.7-5.7,3.8-6.9,9.4c-1.4,6.7,3.3,11.6,4,12.3c2,2,4,3.2,5.4,3.8c3.1,1.5,5.9,1.9,8,2.1c2.4,0.3,4.5,0.3,6,0.2
		c2.2,0,6.5-0.3,10.7-2.6c1.6-0.9,2.9-1.8,3.8-2.7c-1.6-1.4-3.2-2.9-4.8-4.3c-1.9,1.5-3.7,2.2-4.8,2.6c-5.4,1.8-11.1,0.7-14.4-1.1
		c-1.6-0.9-2.4-1.8-2.6-2c-1.4-1.5-1.8-3-2-3.8h31.3C241.5,39.8,241.8,36.1,239.4,32.4z M210,37c2-8.6,11.4-7.6,11.4-7.6
		C231,28.9,233,37,233,37H210z"/>
	<path class="st1" d="M247.3,16.1h-23.2c-4,0-7.3-3.3-7.3-7.3V7.9c0-4,3.3-7.3,7.3-7.3h23.2c4,0,7.3,3.3,7.3,7.3v0.8
		C254.6,12.8,251.4,16.1,247.3,16.1z"/>
	<path class="st1" d="M177.3,32.3c-0.1-0.5-0.2-1-0.6-1.7c0,0-0.4-0.9-1.1-1.7c-0.8-0.9-4.3-4.3-10.7-5.2c-3.8-0.5-6.9-0.2-6.9-0.2
		c-9.4,0.2-15.2,3.7-15.2,3.7l3.4,5.5c1.3-0.7,3.3-1.6,5.8-2.3c1.2-0.3,10.8-2.7,14.7,1.4c0.6,0.6,1.7,2.1,1.5,4.8h-13.4
		c-3.4,0.2-6.3,1.2-6.3,1.2c-0.7,0.2-4.4,1.1-6.2,4.1c-2.2,3.7,0.2,7.4,0.8,8.3c2.2,3,5.9,4.1,7.3,4.4c0.3,0.1,1.2,0.2,2.3,0.3
		c1.5,0.2,2.9,0.2,3.7,0.2c1.5,0,6.3,0,10.2-2.6c1-0.6,1.6-1.3,2-1.7v4h8.8c0-6.7,0-13.5,0-20.2C177.5,33.7,177.4,32.9,177.3,32.3z
		 M168.3,45.2c0,0-2.3,4.3-8.8,4.5h-3.1c0,0-5.1-0.2-5.7-3.3c0,0-1.4-4.8,6.8-5h10.8V45.2z"/>
	<path class="st0" d="M124.7,32.1c-0.7-1.1-1.6-2.1-2.4-2.8c-1.4-1.3-5.1-4.4-11-5.6c-9.6-1.9-17.2,2.7-18.4,3.4
		c-1.1,0.7-5.7,3.8-6.9,9.4c-1.4,6.7,3.3,11.6,4,12.3c2,2,4,3.2,5.4,3.8c3.1,1.5,5.9,1.9,8,2.1c2.4,0.3,4.5,0.3,6,0.2
		c2.2,0,6.5-0.3,10.7-2.6c1.6-0.9,2.9-1.8,3.8-2.7c-1.6-1.4-3.2-2.9-4.8-4.3c-1.9,1.5-3.7,2.2-4.8,2.6c-5.4,1.8-11.1,0.7-14.4-1.1
		c-1.6-0.9-2.4-1.8-2.6-2c-1.4-1.5-1.8-3-2-3.8h31.3C126.9,39.4,127.1,35.8,124.7,32.1z M95.3,36.7c0,0,0-0.1,0-0.1
		c-0.2,0-0.4,0-0.6,0c0.2-0.9,1-3.3,3.6-5.3c2.1-1.6,4.4-2.2,5.5-2.3c0.8-0.1,3.1-0.4,5.8,0.3c7.1,1.1,8.7,7.5,8.7,7.5H95.3z"/>
	<path class="st1" d="M141.4,30.6l-7.1,3.1c-0.6-0.7-1.5-1.7-3.1-2.6c-2.3-1.3-4.5-1.5-6-1.6c-1.4-0.1-4-0.3-6.8,0.8
		c-1.8,0.7-3,1.7-3.7,2.4c-0.3,0.3-0.6,0.6-0.9,1c-0.5,0.7-1.1,1.6-1.4,2.8h-9.7c0.4-1.8,1.7-5.9,5.9-8.9c2.5-1.8,5.1-2.5,6.6-3
		c0.9-0.3,4.1-1.2,8.5-1.2c1.4,0,3.8,0,6.8,0.7c1.8,0.4,4.6,1.1,7.4,3.1C139.7,28.5,140.8,29.7,141.4,30.6z"/>
	<path class="st1" d="M102.7,41.3h9.7c0,0,0.9,9,14.8,7.1c0,0,4-0.2,6.8-4l7.1,3.3c0,0-3.4,7.9-18.2,7.1
		C122.9,54.9,105.3,54.6,102.7,41.3z"/>
</g>
</svg>
