<?xml version="1.0" encoding="utf-8"?>
<!-- Generator: Adobe Illustrator 21.1.0, SVG Export Plug-In . SVG Version: 6.00 Build 0)  -->
<svg version="1.1" id="Layer_2" xmlns="http://www.w3.org/2000/svg" xmlns:xlink="http://www.w3.org/1999/xlink" x="0px" y="0px"
	 viewBox="0 0 131 26" style="enable-background:new 0 0 131 26;" xml:space="preserve">
<style type="text/css">
	.st0{fill:#53CAEC;}
	.st1{fill:#583FF8;}
</style>
<g>
	<polygon class="st0" points="0.5,5.4 6.4,5.4 13.2,20.4 20.7,5.4 26.2,5.4 33.3,20.4 40.7,5.4 46.4,5.4 36.3,25.7 30.2,25.7 
		23.5,11.9 16.2,25.8 10.5,25.8 	"/>
	<path class="st0" d="M127.3,7.3h-11c-2,0-3.7-1.6-3.7-3.7v0c0-2,1.6-3.7,3.7-3.7l11,0c2,0,3.7,1.6,3.7,3.7v0
		C131,5.7,129.4,7.3,127.3,7.3z"/>
	<path class="st1" d="M88,10.8h4.3v2.4c0,0,1.4-2.4,6.9-2.3v3.2c0,0-6.8-0.7-6.8,4.2v7.5H88V10.8z"/>
	<path class="st1" d="M116.3,15.1c-0.4-0.5-0.8-1-1.2-1.3c-0.7-0.6-2.5-2.1-5.3-2.6c-4.7-0.9-8.4,1.3-8.9,1.6
		c-0.5,0.3-2.8,1.8-3.3,4.5c-0.7,3.2,1.6,5.5,2,5.8c1,0.9,2,1.5,2.6,1.8c1.5,0.7,2.9,0.9,3.9,1c1.2,0.1,2.2,0.1,2.9,0.1
		c1.1,0,3.1-0.1,5.2-1.2c0.8-0.4,1.4-0.9,1.8-1.3c-0.8-0.7-1.6-1.4-2.3-2c-0.9,0.7-1.8,1.1-2.3,1.2c-2.6,0.9-5.4,0.3-7-0.5
		c-0.8-0.4-1.2-0.8-1.3-0.9c-0.7-0.7-0.9-1.4-1-1.8h15.2C117.3,18.6,117.5,16.9,116.3,15.1z M102,17.3c1-4.1,5.5-3.6,5.5-3.6
		c4.7-0.2,5.7,3.6,5.7,3.6H102z"/>
	<path class="st1" d="M120,7.3h-11c-2,0-3.7-1.6-3.7-3.7v0c0-2,1.6-3.7,3.7-3.7l11,0c2,0,3.7,1.6,3.7,3.7v0
		C123.7,5.7,122,7.3,120,7.3z"/>
	<path class="st1" d="M86.2,15c-0.1-0.2-0.1-0.5-0.3-0.8c0,0-0.2-0.4-0.6-0.8C85,13,83.3,11.4,80.1,11c-1.8-0.3-3.3-0.1-3.3-0.1
		c-4.6,0.1-7.4,1.8-7.4,1.8l1.7,2.6c0.6-0.3,1.6-0.8,2.8-1.1c0.6-0.1,5.3-1.3,7.1,0.7c0.3,0.3,0.8,1,0.7,2.3h-6.5
		c-1.7,0.1-3,0.6-3,0.6c-0.3,0.1-2.1,0.5-3,1.9c-1.1,1.8,0.1,3.5,0.4,3.9c1.1,1.4,2.9,2,3.6,2.1c0.2,0,0.6,0.1,1.1,0.2
		c0.7,0.1,1.4,0.1,1.8,0.1c0.7,0,3.1,0,5-1.2c0.5-0.3,0.8-0.6,1-0.8v1.9h4.3c0-3.2,0-6.4,0-9.6C86.3,15.7,86.2,15.3,86.2,15z
		 M81.8,21.2c0,0-1.1,2-4.3,2.1H76c0,0-2.5-0.1-2.8-1.6c0,0-0.7-2.3,3.3-2.4h5.2V21.2z"/>
	<path class="st0" d="M60.7,14.9c-0.4-0.5-0.8-1-1.2-1.3c-0.7-0.6-2.5-2.1-5.3-2.6c-4.7-0.9-8.4,1.3-8.9,1.6
		c-0.5,0.3-2.8,1.8-3.3,4.5c-0.7,3.2,1.6,5.5,2,5.8c1,0.9,2,1.5,2.6,1.8c1.5,0.7,2.9,0.9,3.9,1c1.2,0.1,2.2,0.1,2.9,0.1
		c1.1,0,3.1-0.1,5.2-1.2c0.8-0.4,1.4-0.9,1.8-1.3c-0.8-0.7-1.6-1.4-2.3-2c-0.9,0.7-1.8,1.1-2.3,1.2c-2.6,0.9-5.4,0.3-7-0.5
		c-0.8-0.4-1.2-0.8-1.3-0.9c-0.7-0.7-0.9-1.4-1-1.8h15.2C61.8,18.4,61.9,16.7,60.7,14.9z M46.5,17.1C46.5,17.1,46.5,17.1,46.5,17.1
		c-0.1-0.1-0.2-0.1-0.3-0.1c0.1-0.4,0.5-1.6,1.8-2.5c1-0.8,2.1-1,2.7-1.1c0.4-0.1,1.5-0.2,2.8,0.1c3.4,0.5,4.2,3.5,4.2,3.5H46.5z"/>
	<path class="st1" d="M68.8,14.2l-3.4,1.5c-0.3-0.3-0.7-0.8-1.5-1.2c-1.1-0.6-2.2-0.7-2.9-0.7c-0.7,0-1.9-0.1-3.3,0.4
		c-0.9,0.3-1.5,0.8-1.8,1.1c-0.1,0.1-0.3,0.3-0.4,0.5c-0.2,0.3-0.5,0.8-0.7,1.3H50c0.2-0.9,0.8-2.8,2.8-4.2c1.2-0.8,2.5-1.2,3.2-1.4
		c0.4-0.1,2-0.6,4.1-0.6c0.7,0,1.8,0,3.3,0.3c0.9,0.2,2.2,0.5,3.6,1.5C68,13.2,68.5,13.8,68.8,14.2z"/>
	<path class="st1" d="M50,19.3h4.7c0,0,0.4,4.3,7.2,3.4c0,0,1.9-0.1,3.3-1.9l3.4,1.6c0,0-1.7,3.7-8.8,3.4
		C59.8,25.8,51.3,25.6,50,19.3z"/>
</g>
</svg>
